<svg width="65" height="65" viewBox="0 0 65 65" fill="none" xmlns="http://www.w3.org/2000/svg">
<path d="M32.5 20L51.25 10.625L32.5 1.25V32.5" stroke="white" stroke-linecap="round" stroke-linejoin="round"/>
<path d="M20 32.4688L2.81248 42.2813C2.33155 42.5538 1.93153 42.9491 1.65322 43.4267C1.37491 43.9043 1.22827 44.4472 1.22827 45C1.22827 45.5528 1.37491 46.0957 1.65322 46.5733C1.93153 47.0509 2.33155 47.4462 2.81248 47.7188L29.375 62.9062C30.3251 63.4548 31.4029 63.7436 32.5 63.7436C33.5971 63.7436 34.6749 63.4548 35.625 62.9062L62.1875 47.7188C62.6684 47.4462 63.0684 47.0509 63.3468 46.5733C63.6251 46.0957 63.7717 45.5528 63.7717 45C63.7717 44.4472 63.6251 43.9043 63.3468 43.4267C63.0684 42.9491 62.6684 42.5538 62.1875 42.2813L45 32.5M15.2812 35.1563L49.7187 54.8437M49.7187 35.1563L15.3125 54.8437" stroke="white" stroke-linecap="round" stroke-linejoin="round"/>
</svg>
