<svg width="65" height="63" viewBox="0 0 65 63" fill="none" xmlns="http://www.w3.org/2000/svg">
<path d="M1.25 61.25C0.973858 61.25 0.75 61.4739 0.75 61.75C0.75 62.0262 0.973858 62.25 1.25 62.25V61.25ZM63.75 62.25C64.0261 62.25 64.25 62.0262 64.25 61.75C64.25 61.4739 64.0261 61.25 63.75 61.25V62.25ZM4.375 24.1562L4.875 24.1583V24.1562H4.375ZM6.78125 19.2502L6.47408 18.8556L6.4709 18.8581L6.78125 19.2502ZM28.6563 2.21887L28.3493 1.8242L28.3491 1.82435L28.6563 2.21887ZM36.3438 2.21887L36.6506 1.82407L36.6481 1.82216L36.3438 2.21887ZM58.2188 19.2189L57.9119 19.6137L57.9123 19.614L58.2188 19.2189ZM24.6875 61.75H24.1875C24.1875 62.0262 24.4114 62.25 24.6875 62.25V61.75ZM40.3125 61.75V62.25C40.5886 62.25 40.8125 62.0262 40.8125 61.75H40.3125ZM53.875 14.88C53.8778 15.1562 54.1039 15.3778 54.38 15.375C54.6561 15.3722 54.8777 15.1462 54.875 14.87L53.875 14.88ZM54.2813 5.50003L54.7812 5.49503C54.7785 5.22085 54.5554 5.00003 54.2813 5.00003V5.50003ZM40.5312 5.00003C40.2551 5.00003 40.0312 5.22389 40.0312 5.50003C40.0312 5.77617 40.2551 6.00003 40.5312 6.00003V5.00003ZM1.25 62.25H63.75V61.25H1.25V62.25ZM4.71875 61.7522L4.875 24.1583L3.875 24.1542L3.71876 61.748L4.71875 61.7522ZM4.875 24.1562C4.875 22.4083 5.70701 20.7383 7.0916 19.6422L6.4709 18.8581C4.85549 20.137 3.875 22.0917 3.875 24.1562H4.875ZM7.08842 19.6447L28.9634 2.6134L28.3491 1.82435L6.47409 18.8556L7.08842 19.6447ZM28.9632 2.61355C31.0314 1.00494 33.9364 1.00234 36.0394 2.61559L36.6481 1.82216C34.1886 -0.0645969 30.7811 -0.0671949 28.3493 1.8242L28.9632 2.61355ZM36.0369 2.61367L57.9119 19.6137L58.5256 18.8241L36.6506 1.82407L36.0369 2.61367ZM57.9123 19.614C59.3197 20.7054 60.125 22.371 60.125 24.1562H61.125C61.125 22.0665 60.1804 20.1074 58.5252 18.8238L57.9123 19.614ZM60.125 24.1562V61.7501H61.125V24.1562H60.125ZM35.625 45.625H29.375V46.625H35.625V45.625ZM29.375 45.625C26.5051 45.625 24.1875 47.9426 24.1875 50.8125H25.1875C25.1875 48.4949 27.0574 46.625 29.375 46.625V45.625ZM24.1875 50.8125V61.75H25.1875V50.8125H24.1875ZM24.6875 62.25H40.3125V61.25H24.6875V62.25ZM40.8125 61.75V50.8125H39.8125V61.75H40.8125ZM40.8125 50.8125C40.8125 47.9426 38.4949 45.625 35.625 45.625V46.625C37.9426 46.625 39.8125 48.4949 39.8125 50.8125H40.8125ZM24.6875 35.4688H18.4375V36.4688H24.6875V35.4688ZM18.4375 35.4688C16.9949 35.4688 15.8125 34.2864 15.8125 32.8438H14.8125C14.8125 34.8387 16.4426 36.4688 18.4375 36.4688V35.4688ZM15.8125 32.8438V28.1563H14.8125V32.8438H15.8125ZM15.8125 28.1563C15.8125 26.7137 16.9949 25.5313 18.4375 25.5313V24.5313C16.4426 24.5313 14.8125 26.1614 14.8125 28.1563H15.8125ZM18.4375 25.5313H24.6875V24.5313H18.4375V25.5313ZM24.6875 25.5313C26.1301 25.5313 27.3125 26.7137 27.3125 28.1563H28.3125C28.3125 26.1614 26.6824 24.5313 24.6875 24.5313V25.5313ZM27.3125 28.1563V32.8438H28.3125V28.1563H27.3125ZM27.3125 32.8438C27.3125 34.2864 26.1301 35.4688 24.6875 35.4688V36.4688C26.6824 36.4688 28.3125 34.8387 28.3125 32.8438H27.3125ZM46.5625 35.4688H40.3125V36.4688H46.5625V35.4688ZM40.3125 35.4688C38.8699 35.4688 37.6875 34.2864 37.6875 32.8438H36.6875C36.6875 34.8387 38.3176 36.4688 40.3125 36.4688V35.4688ZM37.6875 32.8438V28.1563H36.6875V32.8438H37.6875ZM37.6875 28.1563C37.6875 26.7137 38.8699 25.5313 40.3125 25.5313V24.5313C38.3176 24.5313 36.6875 26.1614 36.6875 28.1563H37.6875ZM40.3125 25.5313H46.5625V24.5313H40.3125V25.5313ZM46.5625 25.5313C48.0051 25.5313 49.1875 26.7137 49.1875 28.1563H50.1875C50.1875 26.1614 48.5574 24.5313 46.5625 24.5313V25.5313ZM49.1875 28.1563V32.8438H50.1875V28.1563H49.1875ZM49.1875 32.8438C49.1875 34.2864 48.0051 35.4688 46.5625 35.4688V36.4688C48.5574 36.4688 50.1875 34.8387 50.1875 32.8438H49.1875ZM54.875 14.87L54.7812 5.49503L53.7813 5.50503L53.875 14.88L54.875 14.87ZM54.2813 5.00003H40.5312V6.00003H54.2813V5.00003Z" fill="white"/>
</svg>
