<svg width="34" height="34" viewBox="0 0 34 34" fill="none" xmlns="http://www.w3.org/2000/svg">
<path d="M24.196 10.1063C24.2025 10.1063 24.2113 10.1063 24.22 10.1063C24.4486 10.1063 24.6608 10.1773 24.8347 10.2998L24.8314 10.2977C24.9583 10.4081 25.0436 10.5634 25.0644 10.7384V10.7417C25.0863 10.8752 25.0983 11.0283 25.0983 11.1847C25.0983 11.2558 25.0961 11.3258 25.0906 11.3958V11.3859C24.8446 13.977 23.7771 20.2606 23.2346 23.1613C23.0049 24.3895 22.5531 24.8008 22.1156 24.8402C21.1652 24.9288 20.4433 24.2123 19.5224 23.6086C18.0808 22.6625 17.266 22.0741 15.8671 21.152C14.2494 20.0878 15.2983 19.5005 16.2192 18.5445C16.461 18.293 20.6511 14.4813 20.7331 14.1356C20.7375 14.1148 20.7397 14.0919 20.7397 14.0678C20.7397 13.9825 20.708 13.9048 20.6566 13.8458C20.5997 13.8086 20.5286 13.7878 20.4542 13.7878C20.405 13.7878 20.358 13.7977 20.3142 13.8141L20.3164 13.813C20.1721 13.8458 17.8693 15.3676 13.4083 18.3783C12.9216 18.7622 12.3069 19.005 11.6375 19.0334H11.631C10.6827 18.9186 9.8219 18.7075 9.00487 18.4067L9.08581 18.433C8.05987 18.0983 7.24502 17.9222 7.31502 17.3556C7.35221 17.061 7.75836 16.7595 8.53346 16.4511C13.308 14.3708 16.492 12.9996 18.0852 12.3375C19.8428 11.4045 21.8805 10.6367 24.0231 10.1391L24.1949 10.1052L24.196 10.1063ZM17.4235 0.246094C8.34315 0.267969 0.989868 7.63437 0.989868 16.718C0.989868 25.8147 8.36393 33.1898 17.4617 33.1898C26.5596 33.1898 33.9336 25.8158 33.9336 16.718C33.9336 7.63437 26.5803 0.267969 17.5022 0.246094H17.5C17.4745 0.246094 17.449 0.246094 17.4235 0.246094Z" fill="white"/>
</svg>
