<svg width="61" height="54" viewBox="0 0 61 54" fill="none" xmlns="http://www.w3.org/2000/svg">
<mask id="path-1-inside-1_2009_3281" fill="white">
<path d="M0.00400635 47.5067V22.5261C0.00400635 21.6683 0.177543 20.8356 0.524619 20.0281C0.874366 19.2232 1.34025 18.5322 1.92227 17.955L15.4743 4.51555C16.1204 3.87483 16.8412 3.40752 17.6368 3.11363C18.4351 2.81709 19.232 2.66882 20.0276 2.66882C20.8232 2.66882 21.6189 2.81709 22.4145 3.11363C23.2101 3.41016 23.9309 3.87747 24.577 4.51555L38.133 17.959C38.7124 18.5335 39.1769 19.2245 39.5267 20.0321C39.8764 20.8396 40.0499 21.671 40.0473 22.5261V47.5067C40.0473 49.2859 39.4185 50.8003 38.161 52.05C36.8982 53.2997 35.3711 53.9245 33.5796 53.9245H6.47164C4.68019 53.9245 3.15439 53.2997 1.89424 52.05C0.631412 50.8003 0 49.2859 0 47.5067M6.47164 49.9491H16.944V43.841C16.944 43.0202 17.2377 42.3054 17.825 41.6964C18.4124 41.0874 19.1466 40.783 20.0276 40.783C20.8553 40.783 21.5748 41.0874 22.1862 41.6964C22.7976 42.3054 23.1046 43.0202 23.1073 43.841V49.9491H33.5796C34.3005 49.9491 34.8918 49.7201 35.3537 49.262C35.8156 48.804 36.0465 48.2189 36.0465 47.5067V22.4467C36.0465 22.1422 35.9945 21.8497 35.8904 21.569C35.7889 21.2884 35.61 21.021 35.3537 20.7668L21.7977 7.32338C21.3358 6.86534 20.7458 6.63632 20.0276 6.63632C19.3068 6.63632 18.7154 6.86534 18.2535 7.32338L4.70155 20.7668C4.44525 21.021 4.26503 21.2884 4.16091 21.569C4.05679 21.8497 4.00473 22.1422 4.00473 22.4467V47.5067C4.00473 48.2189 4.237 48.804 4.70155 49.262C5.16076 49.7201 5.75079 49.9491 6.47164 49.9491ZM46.5189 52.0143V18.1853C46.5189 17.8809 46.4669 17.5883 46.3627 17.3076C46.2586 17.027 46.0797 16.7596 45.8261 16.5054L32.6025 3.39163C31.951 2.74561 31.7909 2.01883 32.1219 1.2113C32.4583 0.403767 33.0911 0 34.0202 0C34.2978 0 34.5621 0.0529527 34.8131 0.158858C35.0641 0.264764 35.2803 0.405089 35.4619 0.579833L48.6054 13.6182C49.1874 14.1927 49.6519 14.8837 49.999 15.6913C50.3461 16.4988 50.521 17.3301 50.5236 18.1853V52.0103C50.5236 52.5769 50.3327 53.0495 49.951 53.4281C49.5692 53.8067 49.0926 53.996 48.5213 53.996C47.9499 53.996 47.4734 53.8067 47.0916 53.4281C46.7098 53.0495 46.5189 52.5769 46.5189 52.0103M56.9913 52.0103V13.8485C56.9913 13.544 56.9405 13.2528 56.8391 12.9748C56.7376 12.6968 56.5574 12.428 56.2985 12.1686L47.5281 3.47106C46.8767 2.82504 46.7165 2.08502 47.0475 1.25101C47.3786 0.417004 48.0113 0.00132353 48.9458 0.00397118C49.2234 0.00397118 49.4878 0.0569258 49.7387 0.162831C49.9897 0.26609 50.2059 0.406414 50.3875 0.583806L59.1578 9.28131C59.7372 9.8585 60.1884 10.5509 60.5114 11.3584C60.8345 12.1659 60.9973 12.996 61 13.8485V52.0143C61 52.5809 60.8078 53.0535 60.4233 53.4321C60.0415 53.8107 59.5663 54 58.9976 54C58.4263 54 57.9497 53.8107 57.568 53.4321C57.1862 53.0535 56.9939 52.5809 56.9913 52.0143M6.47164 49.9491H36.0465H4.00873H6.47164ZM20.0276 29.1784C19.2 29.1784 18.4791 28.8739 17.8651 28.2649C17.251 27.656 16.944 26.9411 16.944 26.1203C16.944 25.2996 17.251 24.5847 17.8651 23.9757C18.4791 23.3668 19.2 23.0623 20.0276 23.0623C20.8553 23.0623 21.5748 23.3668 22.1862 23.9757C22.7976 24.5847 23.1046 25.2996 23.1073 26.1203C23.1099 26.9411 22.8029 27.656 22.1862 28.2649C21.5695 28.8739 20.8486 29.1784 20.0236 29.1784"/>
</mask>
<path d="M0.00400635 47.5067V22.5261C0.00400635 21.6683 0.177543 20.8356 0.524619 20.0281C0.874366 19.2232 1.34025 18.5322 1.92227 17.955L15.4743 4.51555C16.1204 3.87483 16.8412 3.40752 17.6368 3.11363C18.4351 2.81709 19.232 2.66882 20.0276 2.66882C20.8232 2.66882 21.6189 2.81709 22.4145 3.11363C23.2101 3.41016 23.9309 3.87747 24.577 4.51555L38.133 17.959C38.7124 18.5335 39.1769 19.2245 39.5267 20.0321C39.8764 20.8396 40.0499 21.671 40.0473 22.5261V47.5067C40.0473 49.2859 39.4185 50.8003 38.161 52.05C36.8982 53.2997 35.3711 53.9245 33.5796 53.9245H6.47164C4.68019 53.9245 3.15439 53.2997 1.89424 52.05C0.631412 50.8003 0 49.2859 0 47.5067M6.47164 49.9491H16.944V43.841C16.944 43.0202 17.2377 42.3054 17.825 41.6964C18.4124 41.0874 19.1466 40.783 20.0276 40.783C20.8553 40.783 21.5748 41.0874 22.1862 41.6964C22.7976 42.3054 23.1046 43.0202 23.1073 43.841V49.9491H33.5796C34.3005 49.9491 34.8918 49.7201 35.3537 49.262C35.8156 48.804 36.0465 48.2189 36.0465 47.5067V22.4467C36.0465 22.1422 35.9945 21.8497 35.8904 21.569C35.7889 21.2884 35.61 21.021 35.3537 20.7668L21.7977 7.32338C21.3358 6.86534 20.7458 6.63632 20.0276 6.63632C19.3068 6.63632 18.7154 6.86534 18.2535 7.32338L4.70155 20.7668C4.44525 21.021 4.26503 21.2884 4.16091 21.569C4.05679 21.8497 4.00473 22.1422 4.00473 22.4467V47.5067C4.00473 48.2189 4.237 48.804 4.70155 49.262C5.16076 49.7201 5.75079 49.9491 6.47164 49.9491ZM46.5189 52.0143V18.1853C46.5189 17.8809 46.4669 17.5883 46.3627 17.3076C46.2586 17.027 46.0797 16.7596 45.8261 16.5054L32.6025 3.39163C31.951 2.74561 31.7909 2.01883 32.1219 1.2113C32.4583 0.403767 33.0911 0 34.0202 0C34.2978 0 34.5621 0.0529527 34.8131 0.158858C35.0641 0.264764 35.2803 0.405089 35.4619 0.579833L48.6054 13.6182C49.1874 14.1927 49.6519 14.8837 49.999 15.6913C50.3461 16.4988 50.521 17.3301 50.5236 18.1853V52.0103C50.5236 52.5769 50.3327 53.0495 49.951 53.4281C49.5692 53.8067 49.0926 53.996 48.5213 53.996C47.9499 53.996 47.4734 53.8067 47.0916 53.4281C46.7098 53.0495 46.5189 52.5769 46.5189 52.0103M56.9913 52.0103V13.8485C56.9913 13.544 56.9405 13.2528 56.8391 12.9748C56.7376 12.6968 56.5574 12.428 56.2985 12.1686L47.5281 3.47106C46.8767 2.82504 46.7165 2.08502 47.0475 1.25101C47.3786 0.417004 48.0113 0.00132353 48.9458 0.00397118C49.2234 0.00397118 49.4878 0.0569258 49.7387 0.162831C49.9897 0.26609 50.2059 0.406414 50.3875 0.583806L59.1578 9.28131C59.7372 9.8585 60.1884 10.5509 60.5114 11.3584C60.8345 12.1659 60.9973 12.996 61 13.8485V52.0143C61 52.5809 60.8078 53.0535 60.4233 53.4321C60.0415 53.8107 59.5663 54 58.9976 54C58.4263 54 57.9497 53.8107 57.568 53.4321C57.1862 53.0535 56.9939 52.5809 56.9913 52.0143M6.47164 49.9491H36.0465H4.00873H6.47164ZM20.0276 29.1784C19.2 29.1784 18.4791 28.8739 17.8651 28.2649C17.251 27.656 16.944 26.9411 16.944 26.1203C16.944 25.2996 17.251 24.5847 17.8651 23.9757C18.4791 23.3668 19.2 23.0623 20.0276 23.0623C20.8553 23.0623 21.5748 23.3668 22.1862 23.9757C22.7976 24.5847 23.1046 25.2996 23.1073 26.1203C23.1099 26.9411 22.8029 27.656 22.1862 28.2649C21.5695 28.8739 20.8486 29.1784 20.0236 29.1784" fill="black"/>
<path d="M0.524619 20.0281L-0.392543 19.6296L-0.394117 19.6332L0.524619 20.0281ZM17.6368 3.11363L17.9833 4.05168L17.985 4.05104L17.6368 3.11363ZM24.577 4.51555L25.2812 3.8055L25.2797 3.80405L24.577 4.51555ZM38.133 17.959L38.8372 17.2489L38.133 17.959ZM40.0473 22.5261L39.0473 22.523V22.5261H40.0473ZM38.161 52.05L38.8644 52.7608L38.8659 52.7593L38.161 52.05ZM1.89424 52.05L2.59839 51.34L2.59764 51.3392L1.89424 52.05ZM16.944 49.9491V50.9491H17.944V49.9491H16.944ZM23.1073 43.841H24.1073L24.1073 43.8377L23.1073 43.841ZM23.1073 49.9491H22.1073V50.9491H23.1073V49.9491ZM35.8904 21.569L34.9499 21.909L34.9528 21.9169L35.8904 21.569ZM35.3537 20.7668L34.6496 21.4768L35.3537 20.7668ZM21.7977 7.32338L21.0936 8.03343L21.7977 7.32338ZM18.2535 7.32338L17.5494 6.61333L17.5493 6.61344L18.2535 7.32338ZM4.70155 20.7668L5.4057 21.4768L5.40581 21.4767L4.70155 20.7668ZM4.70155 49.262L5.40777 48.554L5.40365 48.55L4.70155 49.262ZM45.8261 16.5054L46.534 15.799L46.5302 15.7954L45.8261 16.5054ZM32.6025 3.39163L33.3066 2.68158V2.68158L32.6025 3.39163ZM32.1219 1.2113L31.1988 0.826749L31.1966 0.831974L32.1219 1.2113ZM35.4619 0.579833L36.1661 -0.130109L36.1608 -0.135417L36.1553 -0.140644L35.4619 0.579833ZM48.6054 13.6182L47.9011 14.3281L47.9029 14.3298L48.6054 13.6182ZM50.5236 18.1853H51.5236L51.5236 18.1822L50.5236 18.1853ZM56.2985 12.1686L57.0062 11.4621L57.0026 11.4585L56.2985 12.1686ZM47.5281 3.47106L48.2323 2.76101V2.76101L47.5281 3.47106ZM48.9458 0.00397118L48.9429 1.00397H48.9458V0.00397118ZM49.7387 0.162831L49.3499 1.08419L49.3582 1.08761L49.7387 0.162831ZM50.3875 0.583806L51.0916 -0.126263L51.0863 -0.131439L50.3875 0.583806ZM59.1578 9.28131L59.8636 8.57288L59.862 8.57126L59.1578 9.28131ZM61 13.8485H62L62 13.8454L61 13.8485ZM60.4233 53.4321L59.7216 52.7196L59.7192 52.722L60.4233 53.4321ZM1.00401 47.5067V22.5261H-0.995994V47.5067H1.00401ZM1.00401 22.5261C1.00401 21.8075 1.14854 21.1089 1.44336 20.423L-0.394117 19.6332C-0.793454 20.5623 -0.995994 21.5292 -0.995994 22.5261H1.00401ZM1.44177 20.4266C1.74454 19.7299 2.14074 19.1467 2.62642 18.665L1.21812 17.2449C0.539758 17.9177 0.00419101 18.7166 -0.392535 19.6296L1.44177 20.4266ZM2.62642 18.665L16.1784 5.2256L14.7701 3.80551L1.21812 17.2449L2.62642 18.665ZM16.1784 5.2256C16.7305 4.67812 17.3315 4.29247 17.9833 4.05168L17.2903 2.17558C16.351 2.52256 15.5102 3.07153 14.7701 3.80551L16.1784 5.2256ZM17.985 4.05104C18.6798 3.79297 19.359 3.66882 20.0276 3.66882V1.66882C19.105 1.66882 18.1904 1.84122 17.2886 2.17622L17.985 4.05104ZM20.0276 3.66882C20.6962 3.66882 21.3738 3.79295 22.0652 4.05066L22.7637 2.1766C21.8639 1.84124 20.9503 1.66882 20.0276 1.66882V3.66882ZM22.0652 4.05066C22.7193 4.29447 23.3217 4.68127 23.8743 5.22706L25.2797 3.80405C24.5401 3.07368 23.7008 2.52586 22.7637 2.1766L22.0652 4.05066ZM23.8729 5.2256L37.4289 18.669L38.8372 17.2489L25.2812 3.80551L23.8729 5.2256ZM37.4289 18.669C37.9109 19.1471 38.3059 19.7296 38.609 20.4295L40.4443 19.6346C40.0479 18.7195 39.5138 17.9199 38.8372 17.2489L37.4289 18.669ZM38.609 20.4295C38.9056 21.1144 39.0495 21.8096 39.0473 22.523L41.0473 22.5293C41.0504 21.5323 40.8472 20.5648 40.4443 19.6346L38.609 20.4295ZM39.0473 22.5261V47.5067H41.0473V22.5261H39.0473ZM39.0473 47.5067C39.0473 49.0207 38.524 50.2795 37.4561 51.3407L38.8659 52.7593C40.3131 51.3211 41.0473 49.5511 41.0473 47.5067H39.0473ZM37.4576 51.3392C36.3838 52.4019 35.1101 52.9245 33.5796 52.9245V54.9245C35.632 54.9245 37.4126 54.1975 38.8644 52.7608L37.4576 51.3392ZM33.5796 52.9245H6.47164V54.9245H33.5796V52.9245ZM6.47164 52.9245C4.94118 52.9245 3.66928 52.402 2.59839 51.34L1.19008 52.7601C2.6395 54.1974 4.41921 54.9245 6.47164 54.9245V52.9245ZM2.59764 51.3392C1.52492 50.2777 1 49.0193 1 47.5067H-1C-1 49.5525 -0.2621 51.323 1.19084 52.7608L2.59764 51.3392ZM6.47164 50.9491H16.944V48.9491H6.47164V50.9491ZM17.944 49.9491V43.841H15.944V49.9491H17.944ZM17.944 43.841C17.944 43.2879 18.1311 42.8196 18.5448 42.3906L17.1053 41.0022C16.3443 41.7911 15.944 42.7525 15.944 43.841H17.944ZM18.5448 42.3906C18.9351 41.986 19.4055 41.783 20.0276 41.783V39.783C18.8877 39.783 17.8897 40.1889 17.1053 41.0022L18.5448 42.3906ZM20.0276 41.783C20.5785 41.783 21.0476 41.9738 21.4805 42.4049L22.8919 40.9879C22.102 40.2011 21.1321 39.783 20.0276 39.783V41.783ZM21.4805 42.4049C21.915 42.8377 22.1055 43.303 22.1073 43.8442L24.1073 43.8377C24.1037 42.7374 23.6802 41.773 22.8919 40.9879L21.4805 42.4049ZM22.1073 43.841V49.9491H24.1073V43.841H22.1073ZM23.1073 50.9491H33.5796V48.9491H23.1073V50.9491ZM33.5796 50.9491C34.533 50.9491 35.3876 50.6368 36.0579 49.9721L34.6496 48.552C34.3961 48.8034 34.068 48.9491 33.5796 48.9491V50.9491ZM36.0579 49.9721C36.728 49.3075 37.0465 48.4577 37.0465 47.5067H35.0465C35.0465 47.9801 34.9032 48.3005 34.6496 48.552L36.0579 49.9721ZM37.0465 47.5067V22.4467H35.0465V47.5067H37.0465ZM37.0465 22.4467C37.0465 22.0256 36.9741 21.6151 36.8279 21.2212L34.9528 21.9169C35.0149 22.0843 35.0465 22.2589 35.0465 22.4467H37.0465ZM36.8308 21.2291C36.6695 20.7829 36.3977 20.3937 36.0579 20.0567L34.6496 21.4768C34.8224 21.6482 34.9083 21.7938 34.9499 21.909L36.8308 21.2291ZM36.0579 20.0567L22.5019 6.61333L21.0936 8.03343L34.6496 21.4768L36.0579 20.0567ZM22.5019 6.61333C21.8324 5.94939 20.9795 5.63632 20.0276 5.63632V7.63632C20.5121 7.63632 20.8393 7.78129 21.0936 8.03343L22.5019 6.61333ZM20.0276 5.63632C19.0743 5.63632 18.2196 5.94866 17.5494 6.61333L18.9577 8.03343C19.2112 7.78202 19.5393 7.63632 20.0276 7.63632V5.63632ZM17.5493 6.61344L3.99729 20.0568L5.40581 21.4767L18.9578 8.03333L17.5493 6.61344ZM3.9974 20.0567C3.65879 20.3925 3.38736 20.7791 3.22336 21.2212L5.09847 21.9169C5.14271 21.7976 5.23171 21.6494 5.4057 21.4768L3.9974 20.0567ZM3.22336 21.2212C3.07722 21.6151 3.00473 22.0256 3.00473 22.4467H5.00473C5.00473 22.2589 5.03636 22.0843 5.09847 21.9169L3.22336 21.2212ZM3.00473 22.4467V47.5067H5.00473V22.4467H3.00473ZM3.00473 47.5067C3.00473 48.4594 3.32585 49.3099 3.99945 49.9741L5.40365 48.55C5.14816 48.298 5.00473 47.9783 5.00473 47.5067H3.00473ZM3.99534 49.97C4.66371 50.6367 5.51831 50.9491 6.47164 50.9491V48.9491C5.98327 48.9491 5.65781 48.8035 5.40776 48.554L3.99534 49.97ZM47.5189 52.0143V18.1853H45.5189V52.0143H47.5189ZM47.5189 18.1853C47.5189 17.7642 47.4464 17.3537 47.3003 16.9598L45.4252 17.6555C45.4873 17.8229 45.5189 17.9975 45.5189 18.1853H47.5189ZM47.3003 16.9598C47.1373 16.5204 46.8691 16.1349 46.5339 15.7991L45.1182 17.2118C45.2904 17.3843 45.3799 17.5336 45.4252 17.6555L47.3003 16.9598ZM46.5302 15.7954L33.3066 2.68158L31.8983 4.10168L45.1219 17.2155L46.5302 15.7954ZM33.3066 2.68158C33.0855 2.46231 33.0004 2.28302 32.9703 2.14679C32.9412 2.01473 32.9452 1.83943 33.0472 1.59062L31.1966 0.831974C30.9676 1.3907 30.8861 1.98255 31.0172 2.57727C31.1474 3.16782 31.468 3.67493 31.8983 4.10168L33.3066 2.68158ZM33.045 1.59584C33.148 1.34854 33.2697 1.22048 33.3867 1.14582C33.508 1.0684 33.7009 1 34.0202 1V-1C33.4103 -1 32.8223 -0.866516 32.3108 -0.540167C31.7951 -0.211066 31.4322 0.26652 31.1988 0.826755L33.045 1.59584ZM34.0202 1C34.1669 1 34.2988 1.02722 34.4243 1.08018L35.2019 -0.762465C34.8255 -0.921316 34.4287 -1 34.0202 -1V1ZM34.4243 1.08018C34.5714 1.14228 34.6821 1.2173 34.7684 1.30031L36.1553 -0.140644C35.8785 -0.407122 35.5567 -0.61275 35.2019 -0.762465L34.4243 1.08018ZM34.7576 1.28978L47.9011 14.3281L49.3096 12.9082L36.1661 -0.130109L34.7576 1.28978ZM47.9029 14.3298C48.3864 14.8071 48.7803 15.3882 49.0803 16.0861L50.9178 15.2964C50.5236 14.3792 49.9884 13.5783 49.3079 12.9065L47.9029 14.3298ZM49.0803 16.0861C49.3757 16.7734 49.5214 17.4718 49.5236 18.1885L51.5236 18.1822C51.5205 17.1885 51.3165 16.2242 50.9178 15.2964L49.0803 16.0861ZM49.5236 18.1853V52.0103H51.5236V18.1853H49.5236ZM49.5236 52.0103C49.5236 52.3262 49.4282 52.5382 49.2468 52.7181L50.6551 54.1382C51.2373 53.5608 51.5236 52.8276 51.5236 52.0103H49.5236ZM49.2468 52.7181C49.0649 52.8984 48.8471 52.996 48.5213 52.996V54.996C49.3381 54.996 50.0734 54.715 50.6551 54.1382L49.2468 52.7181ZM48.5213 52.996C48.1954 52.996 47.9776 52.8984 47.7957 52.7181L46.3874 54.1382C46.9691 54.715 47.7045 54.996 48.5213 54.996V52.996ZM47.7957 52.7181C47.6143 52.5382 47.5189 52.3262 47.5189 52.0103H45.5189C45.5189 52.8276 45.8053 53.5608 46.3874 54.1382L47.7957 52.7181ZM57.9913 52.0103V13.8485H55.9913V52.0103H57.9913ZM57.9913 13.8485C57.9913 13.4305 57.9212 13.023 57.7785 12.632L55.8997 13.3176C55.9599 13.4826 55.9913 13.6575 55.9913 13.8485H57.9913ZM57.7785 12.632C57.6168 12.1888 57.344 11.8006 57.0062 11.4621L55.5907 12.875C55.7708 13.0555 55.8585 13.2048 55.8997 13.3176L57.7785 12.632ZM57.0026 11.4585L48.2323 2.76101L46.824 4.18111L55.5943 12.8786L57.0026 11.4585ZM48.2323 2.76101C48.0146 2.54512 47.928 2.36417 47.8967 2.21996C47.8659 2.07756 47.8709 1.88731 47.977 1.61996L46.1181 0.882068C45.8931 1.44872 45.8127 2.04549 45.942 2.6431C46.071 3.23891 46.3902 3.75097 46.824 4.18111L48.2323 2.76101ZM47.977 1.61996C48.0811 1.35771 48.2048 1.22487 48.3195 1.14953C48.4372 1.07217 48.6256 1.00307 48.9429 1.00397L48.9486 -0.996025C48.3315 -0.997773 47.7363 -0.860364 47.2213 -0.522036C46.7033 -0.181695 46.345 0.310306 46.1181 0.882068L47.977 1.61996ZM48.9458 1.00397C49.0925 1.00397 49.2244 1.03119 49.3499 1.08416L50.1275 -0.758492C49.7511 -0.917341 49.3543 -0.996029 48.9458 -0.996029V1.00397ZM49.3582 1.08761C49.4989 1.14549 49.605 1.21732 49.6886 1.29905L51.0863 -0.131439C50.8069 -0.404491 50.4805 -0.613309 50.1192 -0.76195L49.3582 1.08761ZM49.6833 1.29386L58.4537 9.99136L59.862 8.57126L51.0916 -0.126243L49.6833 1.29386ZM58.452 9.98974C58.929 10.4649 59.3072 11.0404 59.583 11.7298L61.4399 10.987C61.0696 10.0613 60.5454 9.2521 59.8636 8.57288L58.452 9.98974ZM59.583 11.7298C59.8601 12.4226 59.9977 13.1278 60 13.8516L62 13.8454C61.9969 12.8641 61.8088 11.9092 61.4399 10.987L59.583 11.7298ZM60 13.8485V52.0143H62V13.8485H60ZM60 52.0143C60 52.328 59.9048 52.5392 59.7216 52.7196L61.125 54.1446C61.7107 53.5678 62 52.8338 62 52.0143H60ZM59.7192 52.722C59.5363 52.9034 59.3194 53 58.9976 53V55C59.8132 55 60.5468 54.718 61.1275 54.1421L59.7192 52.722ZM58.9976 53C58.6718 53 58.454 52.9024 58.2721 52.722L56.8638 54.1421C57.4455 54.719 58.1808 55 58.9976 55V53ZM58.2721 52.722C58.0895 52.5409 57.9928 52.327 57.9913 52.0096L55.9913 52.019C55.9951 52.8348 56.2829 53.566 56.8638 54.1421L58.2721 52.722ZM6.47164 50.9491H36.0465V48.9491H6.47164V50.9491ZM36.0465 48.9491H4.00873V50.9491H36.0465V48.9491ZM4.00873 50.9491H6.47164V48.9491H4.00873V50.9491ZM20.0276 28.1784C19.4767 28.1784 19.0054 27.9874 18.5692 27.5549L17.1609 28.975C17.9529 29.7604 18.9233 30.1784 20.0276 30.1784V28.1784ZM18.5692 27.5549C18.1332 27.1225 17.944 26.6589 17.944 26.1203H15.944C15.944 27.2233 16.3688 28.1894 17.1609 28.975L18.5692 27.5549ZM17.944 26.1203C17.944 25.5817 18.1332 25.1182 18.5692 24.6858L17.1609 23.2657C16.3688 24.0512 15.944 25.0174 15.944 26.1203H17.944ZM18.5692 24.6858C19.0054 24.2533 19.4767 24.0623 20.0276 24.0623V22.0623C18.9233 22.0623 17.9529 22.4803 17.1609 23.2657L18.5692 24.6858ZM20.0276 24.0623C20.5785 24.0623 21.0476 24.2531 21.4805 24.6842L22.8919 23.2672C22.102 22.4804 21.1321 22.0623 20.0276 22.0623V24.0623ZM21.4805 24.6842C21.915 25.117 22.1055 25.5823 22.1073 26.1236L24.1073 26.1171C24.1037 25.0168 23.6802 24.0524 22.8919 23.2672L21.4805 24.6842ZM22.1073 26.1236C22.109 26.6595 21.9211 27.1213 21.4836 27.5533L22.8888 28.9765C23.6847 28.1906 24.1109 27.2227 24.1073 26.1171L22.1073 26.1236ZM21.4836 27.5533C21.0435 27.9879 20.5712 28.1784 20.0236 28.1784V30.1784C21.126 30.1784 22.0954 29.7599 22.8888 28.9765L21.4836 27.5533Z" fill="white" mask="url(#path-1-inside-1_2009_3281)"/>
</svg>
