<svg width="35" height="35" viewBox="0 0 35 35" fill="none" xmlns="http://www.w3.org/2000/svg">
<path fill-rule="evenodd" clip-rule="evenodd" d="M17.4952 0C8.33011 0 0.875 7.45719 0.875 16.6249C0.875 20.2606 2.04751 23.6325 4.04068 26.3693L1.9692 32.5461L8.35933 30.5038C10.9876 32.2435 14.124 33.25 17.5048 33.25C26.6699 33.25 34.125 25.7925 34.125 16.6251C34.125 7.45749 26.6699 0.000274817 17.5048 0.000274817L17.4952 0ZM12.8539 8.44469C12.5315 7.67262 12.2872 7.64339 11.7989 7.62353C11.6326 7.61388 11.4473 7.60423 11.2418 7.60423C10.6065 7.60423 9.94218 7.78987 9.54151 8.20031C9.05314 8.69874 7.84145 9.86166 7.84145 12.2465C7.84145 14.6314 9.58066 16.9379 9.81505 17.2607C10.0594 17.5828 13.2058 22.5479 18.0911 24.5714C21.9114 26.1547 23.0451 26.0079 23.9145 25.8223C25.1847 25.5487 26.7775 24.61 27.1781 23.4766C27.5788 22.3427 27.5788 21.375 27.4613 21.1698C27.3441 20.9646 27.0215 20.8476 26.5331 20.603C26.0447 20.3586 23.6702 19.1857 23.2207 19.0293C22.7809 18.8633 22.3609 18.922 22.0289 19.3912C21.5598 20.046 21.1007 20.7108 20.7293 21.1113C20.4361 21.4241 19.9571 21.4633 19.5567 21.297C19.0193 21.0724 17.5148 20.5442 15.6581 18.8925C14.2217 17.6123 13.2447 16.0194 12.9615 15.5406C12.678 15.052 12.9322 14.7682 13.1567 14.5045C13.401 14.2014 13.6354 13.9865 13.8797 13.7029C14.124 13.4196 14.2608 13.2729 14.4172 12.9405C14.5835 12.6181 14.466 12.2857 14.3488 12.0413C14.2316 11.7969 13.2546 9.41204 12.8539 8.44469Z" fill="white"/>
</svg>
